
<svg version="1.0" xmlns="http://www.w3.org/2000/svg"
 width="28" height="28" viewBox="0 0 64.000000 64.000000"
 preserveAspectRatio="xMidYMid meet">

    <g transform="translate(0.000000,64.000000) scale(0.100000,-0.100000)"
    fill="#FFFFFF" stroke="none">
        <path d="M210 583 c-28 -9 -65 -12 -98 -9 -50 4 -54 3 -64 -22 -17 -45 -14
        -190 7 -252 32 -98 97 -175 173 -207 61 -25 57 1 -5 38 -112 66 -156 159 -151
        320 l3 94 42 -3 c23 -2 68 4 101 13 49 14 64 15 83 4 13 -6 55 -13 94 -15 l70
        -3 3 -101 c2 -74 6 -100 15 -97 13 4 22 150 12 205 l-6 32 -53 -6 c-36 -4 -71
        -1 -108 10 -65 18 -59 18 -118 -1z"/>
        <path d="M395 285 c-27 -26 -32 -63 -14 -98 9 -16 9 -22 -1 -25 -49 -17 -107
        -122 -66 -122 9 0 16 8 16 19 0 31 39 70 81 81 69 19 150 -19 161 -74 5 -31
        28 -32 28 -1 0 34 -26 72 -61 90 -27 14 -27 16 -14 42 41 79 -67 152 -130 88z
        m93 -17 c7 -7 12 -24 12 -38 0 -34 -17 -50 -52 -50 -37 0 -57 38 -40 75 13 27
        58 35 80 13z"/>
    </g>
</svg>
