<svg width="112" height="107" viewBox="0 0 112 107" fill="none" xmlns="http://www.w3.org/2000/svg">
<path d="M54.8645 0.00785488C54.6423 0.017056 54.4165 0.0354604 54.2175 0.0848394C53.8738 0.163663 53.7283 0.237284 53.8931 0.249246C54.069 0.264581 53.946 0.415764 53.5946 0.62233C52.7334 1.12824 51.7338 2.3147 46.4469 9.10858C41.5685 15.3775 40.0202 17.1975 34.5934 23.0388C24.5961 33.7995 19.4965 38.3814 6.86048 47.9572C2.84801 50.998 1.10312 52.5531 0.595684 53.5417C0.417707 53.8889 0.261097 54.0418 0.247356 53.883C0.237296 53.7245 0.160419 53.811 0.0826168 54.0754C-0.103993 54.7109 0.0520517 55.5569 0.287032 55.1978C0.413645 55.0079 0.456878 55.0033 0.459935 55.1763C0.469996 55.7554 2.32911 57.2524 8.34422 61.5201C16.5231 67.3232 17.6423 68.1683 22.2074 71.9766C33.8572 81.6954 45.3378 93.4385 51.7074 102.153C54.0864 105.408 54.7583 106.193 55.392 106.458C55.8781 106.661 55.9174 106.718 55.5953 106.745C55.3757 106.76 55.5547 106.841 55.9961 106.916C56.4364 106.99 56.9156 107.021 57.0622 106.984C57.2087 106.946 57.5249 106.915 57.7633 106.914C58.1172 106.911 58.1405 106.875 57.8965 106.725C57.6386 106.565 57.6442 106.538 57.9372 106.535C58.1248 106.534 58.473 106.337 58.7094 106.099C58.9458 105.862 61.9066 102.121 65.2878 97.788C68.6691 93.4543 71.9642 89.3037 72.6108 88.5639C81.0578 78.898 96.9899 64.6915 108.464 56.5942C109.697 55.7244 110.935 54.7506 111.215 54.4302C111.498 54.1076 111.736 53.9619 111.749 54.102C111.759 54.2422 111.841 54.014 111.924 53.5959C112.097 52.7352 111.95 51.2266 111.724 51.5737C111.632 51.7163 111.532 51.6231 111.453 51.3185C111.274 50.6368 110.085 49.6928 106.101 47.0754C94.6712 39.5641 86.8212 33.0851 75.9435 22.1862C68.9354 15.1642 65.8285 11.7229 60.6189 5.20478C58.0564 1.99874 56.5316 0.456531 55.9158 0.451746C55.66 0.449231 55.6498 0.417049 55.8649 0.28486C56.1527 0.109426 55.5298 -0.0206026 54.8647 0.00270693L54.8645 0.00785488ZM55.1493 13.1928C56.299 13.1775 57.5814 13.3649 58.598 13.7332C65.88 16.3704 93.01 41.8238 97.3157 50.0584C98.0125 51.3911 98.0706 51.6233 98.0657 53.1335C98.0624 55.1449 97.6088 56.1583 95.2124 59.5709C91.3905 65.0131 87.3362 69.5138 79.2701 77.2636C70.6912 85.5062 63.4775 91.4769 60.2163 93.036C56.8309 94.6556 54.2017 93.8898 48.227 89.5427C37.1414 81.476 26.0166 71.3162 18.806 62.6739C13.9414 56.8435 13.309 55.3689 14.3782 52.3616C15.9952 47.8141 23.2983 39.3081 35.6671 27.566C44.7982 18.8976 50.5215 14.3146 53.3084 13.442C53.817 13.2829 54.4594 13.2014 55.1493 13.1928ZM55.7304 16.6247C55.2479 16.6235 54.7817 16.7134 54.2901 16.8799C53.1914 17.252 50.6153 18.8999 48.2573 20.7383C39.2318 27.7755 20.0869 47.3411 18.0905 51.5678C17.5886 52.6304 17.5417 54.5796 17.9878 55.8362C19.2436 59.3757 29.7826 70.361 40.8092 79.6221C46.3303 84.2585 53.6225 89.5514 55.2653 90.1151C56.9861 90.7056 58.5108 90.3518 60.8 88.832C69.8451 82.8276 90.1395 62.5885 93.6118 56.1095C94.2291 54.9578 94.3183 54.617 94.3183 53.395C94.3183 52.6265 94.1832 51.6313 94.0195 51.1842C93.0607 48.5754 87.8348 42.6712 79.3762 34.6395C71.769 27.4165 66.7216 23.1027 61.6665 19.5071C58.7799 17.4539 57.1812 16.6279 55.7325 16.6243L55.7304 16.6247ZM69.1244 30.1551C70.5743 30.155 70.7135 30.1941 71.8523 30.9246C73.2187 31.8008 74.3379 33.0224 74.9069 34.2578C75.6721 35.9189 75.8987 39.6495 75.2995 40.7244C75.004 41.2548 74.2898 41.4013 67.2952 42.3644C61.1516 43.2104 59.0431 43.5202 58.1563 43.707C57.8024 43.7816 57.6631 44.049 57.4026 45.1472C56.8174 47.6183 53.7357 61.8482 51.8955 70.5742C50.8963 75.3131 49.9487 79.4318 49.7898 79.7274C49.6311 80.0231 49.354 80.3171 49.1756 80.3832C47.9421 80.8376 44.7697 79.5183 42.8424 77.7495C40.4161 75.5229 39.3539 73.2373 39.5347 70.6299C39.646 69.0222 42.0841 57.0381 44.7782 44.8562C46.9921 34.8457 47.452 33.068 47.8776 32.8493C49.0342 32.255 65.5926 30.1552 69.1244 30.1551ZM44.9641 33.2417C45.2774 33.2263 45.4722 33.3091 45.544 33.4897C45.7677 34.0494 43.4649 45.2443 43.0441 45.6433C42.888 45.7908 40.6653 46.1733 37.5792 46.5823C34.7177 46.9612 32.1059 47.3171 31.7757 47.372C31.4207 47.4312 31.0196 47.3628 30.794 47.2011C30.2243 46.7973 30.4639 45.882 31.6439 43.9641C34.5882 39.1771 37.5551 36.4698 42.4379 34.1149C43.5939 33.5574 44.4426 33.2655 44.9641 33.2417ZM70.2274 47.4782C72.1836 47.4506 72.795 47.7413 73.2189 48.7158C73.4827 49.3211 73.4624 49.5961 72.9865 51.8124C72.2911 55.0537 71.5824 57.3598 70.9743 58.3599C69.9613 60.0256 68.3181 60.5764 61.9921 61.3693C55.8087 62.1442 56.0043 62.1309 55.6905 61.7677C55.4606 61.5018 55.453 61.2171 55.6498 60.1086C56.0144 58.0693 58.0383 49.8215 58.2815 49.3851C58.4 49.1734 58.8326 48.9144 59.2435 48.8093C60.6875 48.4401 67.0191 47.6213 69.3021 47.5096C69.6393 47.4882 69.9464 47.4821 70.2259 47.4821L70.2274 47.4782ZM69.1969 66.378L69.2544 66.955C69.3327 67.7195 68.2727 69.3854 66.1391 71.8511C63.0588 75.4108 60.2755 77.4098 55.8486 79.2439C52.9127 80.4602 52.3145 80.6096 51.7989 80.2471C51.5152 80.049 51.4262 79.766 51.448 79.1362C51.4887 78.0269 53.499 68.8384 53.7845 68.4634C53.9462 68.2515 55.6702 67.9463 60.1679 67.3321C63.5573 66.8692 66.9756 66.4655 67.7636 66.4348L69.1969 66.378Z" fill="#0D5FAA"/>
</svg>
