<svg width="32" height="25" viewBox="0 0 32 25" fill="none" xmlns="http://www.w3.org/2000/svg">
<path d="M23.7817 16.6947C24.5014 16.2687 25.3455 16.0281 26.2164 16.0006C27.0873 15.9731 27.9495 16.1598 28.703 16.5392C29.4566 16.9186 30.0708 17.4752 30.4746 18.1445C30.8784 18.8138 31.0554 19.5685 30.9849 20.3213C29.139 20.8804 27.1783 21.098 25.2294 20.96C25.2234 19.4488 24.7213 17.969 23.7817 16.696C22.9477 15.5624 21.7972 14.6294 20.4367 13.9833C19.0762 13.3373 17.5497 12.9991 15.9984 13C14.4474 12.9993 12.9212 13.3376 11.561 13.9836C10.2008 14.6297 9.05058 15.5626 8.21671 16.696M25.2278 20.9586L25.2294 21C25.2294 21.3 25.2109 21.596 25.1725 21.888C22.3806 23.2761 19.2171 24.0044 15.9984 24C12.6599 24 9.52597 23.232 6.82438 21.888C6.78482 21.5794 6.76582 21.2691 6.76745 20.9586M6.76745 20.9586C4.81915 21.1017 2.85954 20.8849 1.01502 20.3227C0.944792 19.5701 1.12179 18.8156 1.52554 18.1465C1.92929 17.4774 2.54332 16.921 3.29661 16.5417C4.04991 16.1623 4.91171 15.9755 5.78238 16.0028C6.65305 16.0301 7.49702 16.2704 8.21671 16.696M6.76745 20.9586C6.77298 19.4476 7.27765 17.9691 8.21671 16.696M20.6139 5C20.6139 6.06086 20.1276 7.07828 19.2621 7.82842C18.3965 8.57857 17.2225 8.99999 15.9984 8.99999C14.7743 8.99999 13.6003 8.57857 12.7348 7.82842C11.8692 7.07828 11.3829 6.06086 11.3829 5C11.3829 3.93913 11.8692 2.92172 12.7348 2.17157C13.6003 1.42143 14.7743 1 15.9984 1C17.2225 1 18.3965 1.42143 19.2621 2.17157C20.1276 2.92172 20.6139 3.93913 20.6139 5ZM29.8449 8.99999C29.8449 9.39396 29.7553 9.78407 29.5814 10.148C29.4074 10.512 29.1524 10.8427 28.831 11.1213C28.5095 11.3999 28.1279 11.6209 27.708 11.7716C27.288 11.9224 26.8378 12 26.3833 12C25.9287 12 25.4785 11.9224 25.0586 11.7716C24.6386 11.6209 24.257 11.3999 23.9355 11.1213C23.6141 10.8427 23.3591 10.512 23.1851 10.148C23.0112 9.78407 22.9216 9.39396 22.9216 8.99999C22.9216 8.20434 23.2863 7.44128 23.9355 6.87867C24.5847 6.31607 25.4652 6 26.3833 6C27.3013 6 28.1818 6.31607 28.831 6.87867C29.4802 7.44128 29.8449 8.20434 29.8449 8.99999ZM9.07519 8.99999C9.07519 9.39396 8.98566 9.78407 8.81169 10.148C8.63773 10.512 8.38275 10.8427 8.06131 11.1213C7.73987 11.3999 7.35827 11.6209 6.93828 11.7716C6.5183 11.9224 6.06817 12 5.61358 12C5.159 12 4.70886 11.9224 4.28888 11.7716C3.8689 11.6209 3.48729 11.3999 3.16585 11.1213C2.84441 10.8427 2.58943 10.512 2.41547 10.148C2.24151 9.78407 2.15197 9.39396 2.15197 8.99999C2.15197 8.20434 2.51667 7.44128 3.16585 6.87867C3.81503 6.31607 4.69551 6 5.61358 6C6.53166 6 7.41213 6.31607 8.06131 6.87867C8.71049 7.44128 9.07519 8.20434 9.07519 8.99999Z" stroke="white" stroke-width="1.5" stroke-linecap="round" stroke-linejoin="round"/>
</svg>
