<svg width="22" height="28" viewBox="0 0 22 28" fill="none" xmlns="http://www.w3.org/2000/svg">
<path d="M10.6246 26.875H10.6236C7.12049 26.875 3.78867 26.1476 0.770045 24.8356C0.929197 22.4249 1.96781 20.1494 3.69815 18.447C5.54522 16.6299 8.0325 15.6115 10.6236 15.6115C13.2147 15.6115 15.7019 16.6299 17.549 18.447C19.2793 20.1493 20.3179 22.4247 20.4771 24.8354C17.3697 26.1846 14.0158 26.8796 10.6246 26.875ZM15.1861 5.3125C15.1861 6.52255 14.7054 7.68304 13.8498 8.53868C12.9941 9.39431 11.8336 9.875 10.6236 9.875C9.41353 9.875 8.25304 9.39431 7.39741 8.53868C6.54177 7.68304 6.06108 6.52255 6.06108 5.3125C6.06108 4.10245 6.54177 2.94196 7.39741 2.08633C8.25304 1.23069 9.41353 0.75 10.6236 0.75C11.8336 0.75 12.9941 1.23069 13.8498 2.08633C14.7054 2.94196 15.1861 4.10245 15.1861 5.3125Z" fill="#1267B1" stroke="#1267B1" stroke-width="1.5" stroke-linecap="round" stroke-linejoin="round"/>
</svg>
